<?xml version="1.0" encoding="UTF-8" standalone="no"?><svg xmlns:dc="http://purl.org/dc/elements/1.1/" xmlns:cc="http://creativecommons.org/ns#" xmlns:rdf="http://www.w3.org/1999/02/22-rdf-syntax-ns#" xmlns:svg="http://www.w3.org/2000/svg" xmlns="http://www.w3.org/2000/svg" height="41.0005" width="90" y="0px" x="0px" xml:space="preserve" viewBox="0 0 90 41.0005" version="1.1"><metadata><rdf:RDF><cc:Work rdf:about=""><dc:format>image/svg+xml</dc:format><dc:type rdf:resource="http://purl.org/dc/dcmitype/StillImage"/><dc:title></dc:title></cc:Work></rdf:RDF></metadata><defs/><path style="fill:#000000;fill-opacity:1;stroke:none" d="M 0.99999998,0 C 0.449256,0 0,0.660722 0,1.46875 v 35.625001 c 0,0.80803 0.449256,1.46875 0.99999998,1.46875 H 89 c 0.550957,0 1,-0.66071 1,-1.46875 V 1.46875 C 90,0.660722 89.551064,0 89,0 Z M 22.8125,7.03125 c 1.541015,0 2.78125,1.240246 2.78125,2.78125 0,1.540993 -1.240235,2.78125 -2.78125,2.78125 C 21.271486,12.59375 20,11.353493 20,9.8125 20,8.271496 21.271486,7.03125 22.8125,7.03125 Z M 14.125,10.125 c 0.06848,0.0011 0.148344,0.01667 0.21875,0.03125 L 19.0625,11.125 c 0.900742,0.18705 1.93371,1.476051 2.28125,2.09375 l 2.125,3.75 4.15625,0.125 c 0.673179,0.01683 1.20438,0.545549 1.1875,1.21875 -0.01677,0.673211 -0.576928,1.204337 -1.25,1.1875 0,0 -3.537086,-0.08072 -5.3125,-0.125 -0.451813,-0.01129 -0.824734,-0.259222 -1.03125,-0.625 l -1.40625,-2.5 -3.125,4.8125 3.78125,2.6875 c 0.458223,0.328193 0.638141,0.88525 0.5625,1.40625 -0.02735,0.187649 -0.06288,0.382897 -0.15625,0.5625 l -2.625,5.062501 c -0.362284,0.69694 -1.209247,0.95631 -1.90625,0.59375 -0.697004,-0.36253 -0.956355,-1.20926 -0.59375,-1.90625 L 17.875,25.375 13.84375,22.53125 c 0,0 -1.479973,1.878318 -2.21875,2.8125 -0.125961,0.159336 -0.24685,0.314424 -0.40625,0.4375 -0.363993,0.28128 -0.730025,0.284989 -1.25,0.25 C 7.949534,25.895428 5.925359,25.760821 3.90625,25.625 3.0943968,25.57038 2.4879279,24.841447 2.5625,24.03125 c 0.074679,-0.810218 0.8148562,-1.387211 1.625,-1.3125 1.721996,0.158364 3.544619,0.389722 5.53125,0.46875 L 12.53125,19.65625 16.5,13.5 l -2.53125,-0.53125 -3.3125,2.6875 C 10.135741,16.083587 9.396097,16.020467 8.96875,15.5 8.541402,14.979523 8.604491,14.208576 9.125,13.78125 l 3.8125,-3.125 c 0.284934,-0.23393 0.708337,-0.538483 1.1875,-0.53125 z m 21.46875,1.71875 h 8.625 c 0.60288,3.2e-5 0.90625,0.303412 0.90625,0.90625 v 2 c 0,0.602859 -0.30337,0.906261 -0.90625,0.90625 H 38.5 V 17.5 h 4.21875 c 0.602988,10e-6 0.90625,0.303412 0.90625,0.90625 V 20.125 c 0,0.602859 -0.303262,0.90625 -0.90625,0.90625 H 38.5 v 1.875 h 5.71875 c 0.60288,2.2e-5 0.90625,0.303402 0.90625,0.90625 v 2 c 0,0.602849 -0.30337,0.90625 -0.90625,0.90625 h -8.625 c -0.60288,0 -0.90625,-0.303401 -0.90625,-0.90625 V 12.75 c 0,-0.602838 0.30337,-0.906229 0.90625,-0.90625 z m 14.40625,0 h 2.5625 c 0.231943,0 0.438249,0.0579 0.625,0.15625 0.186537,0.09841 0.368591,0.246176 0.5,0.4375 L 56,15.84375 58.3125,12.4375 c 0.13141,-0.191313 0.313463,-0.339092 0.5,-0.4375 0.186751,-0.09835 0.393057,-0.155802 0.625,-0.15625 H 62 c 0.375959,0.0072 0.609029,0.106956 0.71875,0.3125 0.109615,0.205565 0.08173,0.462673 -0.125,0.78125 L 58.3125,19.21875 62.625,25.625 c 0.206836,0.318588 0.265971,0.575696 0.15625,0.78125 -0.109722,0.205543 -0.342684,0.305364 -0.71875,0.3125 H 59.5 c -0.231943,0 -0.4695,-0.05787 -0.65625,-0.15625 C 58.656999,26.46411 58.506516,26.316323 58.375,26.125 l -2.375,-3.5 -2.375,3.5 c -0.131302,0.191323 -0.281999,0.339114 -0.46875,0.4375 -0.186751,0.09839 -0.424308,0.155823 -0.65625,0.15625 h -2.5625 c -0.375958,-0.0072 -0.609136,-0.106957 -0.71875,-0.3125 -0.109722,-0.205576 -0.08194,-0.462662 0.125,-0.78125 L 53.6875,19.21875 49.40625,12.9375 c -0.206836,-0.318577 -0.234614,-0.575685 -0.125,-0.78125 0.109722,-0.205544 0.342791,-0.305364 0.71875,-0.3125 z m 16.625,0 h 1.96875 C 69.196737,11.843782 69.5,12.147162 69.5,12.75 v 13.0625 c 0,0.602849 -0.303263,0.90625 -0.90625,0.90625 H 66.625 c -0.602987,0 -0.90625,-0.303401 -0.90625,-0.90625 V 12.75 c 0,-0.602838 0.303263,-0.906229 0.90625,-0.90625 z m 6.96875,0 h 10 C 84.196738,11.843782 84.5,12.147162 84.5,12.75 v 2 c 0,0.602859 -0.303262,0.906261 -0.90625,0.90625 H 80.5 V 25.8125 c 0,0.602849 -0.303369,0.90625 -0.90625,0.90625 h -2 c -0.60288,0 -0.90625,-0.303401 -0.90625,-0.90625 V 15.65625 H 73.59375 C 72.990869,15.656261 72.6875,15.352859 72.6875,14.75 v -2 c 0,-0.602838 0.303369,-0.906229 0.90625,-0.90625 z"/><text style="font-weight:bold;font-size:2px;font-family:'Helvetica Neue', Helvetica, Arial-Unicode, Arial, Sans-serif;fill:#808080" font-weight="bold" font-size="2px" y="40.5625" x="0">Created by Aha-Soft from the Noun Project</text></svg>
