<svg xmlns="http://www.w3.org/2000/svg" xmlns:xlink="http://www.w3.org/1999/xlink" version="1.1" x="0px" y="0px" viewBox="0 0 96 112" style="enable-background:new 0 0 96 96;" xml:space="preserve"><path d="M12,54c3-9,6-9,9-9h9h15h9c3,0,6,0,9,9h3c3.314,0,6,2.686,6,6c0,2.248-1.236,4.206-3.066,5.234  C70.813,66.883,72,69.303,72,72v9c0,1.75-1.138,3.159-3,4.295V93c0,1.657-1.343,3-3,3h-6c-1.657,0-3-1.343-3-3v-4.206  C48.781,90,39.802,90,37.5,90c-2.303,0-11.28-0.001-19.5-1.206V93c0,1.657-1.343,3-3,3H9c-1.657,0-3-1.343-3-3v-7.705  C4.138,84.16,3,82.75,3,81v-9c0-2.697,1.186-5.117,3.066-6.766C4.236,64.206,3,62.248,3,60c0-3.314,2.686-6,6-6H12L12,54z M90,3v6v6  v6v6v6v6v6v6v6v6v6v6v6v3v3v3v3c0,1.657-1.343,3-3,3h-6c-1.657,0-3-1.343-3-3v-3v-6v-3v-6v-6v-6v-6v-6v-6v-6v-6v-6v-6v-6V9V3  c0-1.652,1.348-3,3-3h6C88.652,0,90,1.348,90,3L90,3z M87,78v-6l-6-6v6L87,78L87,78z M81,78v3h3L81,78L81,78z M87,66v-6l-6-6v6  L87,66L87,66z M87,6V3h-3L87,6L87,6z M81,6v6l6,6v-6L81,6L81,6z M87,54v-6l-6-6v6L87,54L87,54z M87,42v-6l-6-6v6L87,42L87,42z   M87,30v-6l-6-6v6L87,30L87,30z M46.5,78h-18c-0.828,0-1.5,0.672-1.5,1.5s0.672,1.5,1.5,1.5h18c0.828,0,1.5-0.672,1.5-1.5  S47.328,78,46.5,78L46.5,78z M60,69c-3.314,0-6,2.686-6,6s2.686,6,6,6s6-2.686,6-6S63.314,69,60,69L60,69z M15,69  c-3.314,0-6,2.686-6,6s2.686,6,6,6s6-2.686,6-6S18.314,69,15,69L15,69z M25.5,72c-0.828,0-1.5,0.672-1.5,1.5s0.672,1.5,1.5,1.5h24  c0.828,0,1.5-0.672,1.5-1.5S50.328,72,49.5,72H25.5L25.5,72z M62.838,63l-2.684-8.051c-0.596-1.787-1.863-5.231-3.454-6.424  C55.918,47.938,54.932,48,54,48H21c-0.932,0-1.918-0.061-2.7,0.525c-1.591,1.193-2.858,4.636-3.454,6.424L12.162,63H18h39H62.838z"/><text x="0" y="111" fill="gray" font-size="2px" font-weight="bold" font-family="'Helvetica Neue', Helvetica, Arial-Unicode, Arial, Sans-serif">Created by Stanislav Levin from the Noun Project</text></svg>
