<svg xmlns="http://www.w3.org/2000/svg" xmlns:xlink="http://www.w3.org/1999/xlink" version="1.1" x="0px" y="0px" viewBox="0 0 96 112" style="enable-background:new 0 0 96 96;" xml:space="preserve"><path d="M69,85.295V93c0,1.657-1.343,3-3,3h-6c-1.657,0-3-1.343-3-3v-4.206C48.781,90,39.803,90,37.5,90S26.22,89.999,18,88.794V93  c0,1.657-1.343,3-3,3H9c-1.657,0-3-1.343-3-3v-7.705C4.138,84.16,3,82.75,3,81v-6l-0.077-0.001l-0.077-0.003L2.77,74.991l0,0  l-0.076-0.007l-0.075-0.009l0,0l-0.074-0.011L2.47,74.953l-0.074-0.014l-0.073-0.016l0,0l-0.072-0.018L2.18,74.886l-0.07-0.021  l-0.07-0.023l0,0l-0.07-0.024l-0.068-0.026l0,0l-0.068-0.028l-0.067-0.029l-0.066-0.031l-0.065-0.032l-0.064-0.034l-0.063-0.035  l-0.062-0.037l0,0l-0.061-0.038l-0.06-0.04l0,0l-0.059-0.041l-0.058-0.043l0,0L1.15,74.359l0,0l-0.056-0.045l0,0l-0.055-0.047  l-0.054-0.048l0,0L0.932,74.17l0,0l-0.051-0.05l0,0l-0.05-0.052l-0.049-0.053l-0.048-0.054l-0.046-0.055l0,0L0.641,73.85l0,0  l-0.044-0.057l-0.043-0.058l-0.041-0.059l-0.04-0.061l-0.038-0.061l-0.037-0.062l-0.035-0.063l-0.034-0.064L0.297,73.3l-0.031-0.066  l-0.029-0.067l-0.028-0.068L0.183,73.03l0,0l-0.024-0.069l-0.023-0.07L0.114,72.82l0,0l-0.019-0.071l-0.018-0.072l-0.016-0.073  L0.047,72.53l-0.012-0.074l-0.01-0.074l-0.009-0.075L0.009,72.23l-0.005-0.077l-0.003-0.077L0,72v-6c0-1.652,1.348-3,3-3h0.803  C3.292,62.118,3,61.093,3,60c0-3.314,2.686-6,6-6h3c3-9,6-9,9-9h9h15h9c3,0,6,0,9,9h3c3.314,0,6,2.686,6,6  c0,1.093-0.292,2.118-0.803,3H75v-6c0-1.657,1.343-3,3-3h9c1.657,0,3,1.343,3,3v6h3c1.652,0,3,1.348,3,3v6c0,1.652-1.348,3-3,3h-3  v18c0,1.657-1.343,3-3,3h-9c-1.657,0-3-1.343-3-3V75h-3v6C72,82.75,70.862,84.159,69,85.295L69,85.295z M82.5,42  C82.317,42,82.5,42,82.5,42c-2.485,0-4.5,2.015-4.5,4.5v3c0,0.828,0.672,1.5,1.5,1.5h6c0.828,0,1.5-0.672,1.5-1.5v-3  C87,44.015,84.985,42,82.5,42L82.5,42z M94.5,48c0.828,0,1.5-0.672,1.5-1.5S95.328,45,94.5,45h-3c-0.828,0-1.5,0.672-1.5,1.5  s0.672,1.5,1.5,1.5H94.5L94.5,48z M87.803,39.075c-0.586,0.586-0.586,1.536,0,2.121c0.586,0.586,1.535,0.586,2.121,0l2.121-2.121  c0.586-0.586,0.586-1.535,0-2.121s-1.536-0.586-2.121,0L87.803,39.075L87.803,39.075z M84,37.5c0,0.828-0.672,1.5-1.5,1.5  S81,38.328,81,37.5v-3c0-0.828,0.672-1.5,1.5-1.5s1.5,0.672,1.5,1.5V37.5L84,37.5z M77.197,39.075c0.586,0.586,0.586,1.536,0,2.121  c-0.586,0.586-1.535,0.586-2.121,0l-2.121-2.121c-0.586-0.586-0.586-1.535,0-2.121s1.536-0.586,2.121,0L77.197,39.075L77.197,39.075  z M70.5,48h3c0.828,0,1.5-0.672,1.5-1.5S74.328,45,73.5,45h-3c-0.828,0-1.5,0.672-1.5,1.5S69.672,48,70.5,48L70.5,48z M66,75H54  c0,3.314,2.686,6,6,6S66,78.314,66,75L66,75z M21,75H9c0,3.314,2.686,6,6,6S21,78.314,21,75L21,75z M46.5,78h-18  c-0.828,0-1.5,0.672-1.5,1.5s0.672,1.5,1.5,1.5h18c0.828,0,1.5-0.672,1.5-1.5S47.328,78,46.5,78L46.5,78z M6,66H3v3L6,66L6,66z   M6,72h6l6-6h-6L6,72L6,72z M24,66l-6,6h6l6-6H24L24,66z M36,66l-6,6h6l6-6H36L36,66z M48,66l-6,6h6l6-6H48L48,66z M60,66l-6,6h6  l6-6H60L60,66z M72,66l-6,6h6l6-6H72L72,66z M84,66l-6,6h6l6-6H84L84,66z M93,69l-3,3h3V69L93,69z M62.838,63l-2.684-8.051  c-0.596-1.787-1.863-5.231-3.454-6.424C55.918,47.938,54.932,48,54,48H21c-0.932,0-1.918-0.061-2.7,0.525  c-1.591,1.193-2.858,4.636-3.454,6.424L12.162,63H15h6h6h6h6h6h6h6H62.838z"/><text x="0" y="111" fill="gray" font-size="2px" font-weight="bold" font-family="'Helvetica Neue', Helvetica, Arial-Unicode, Arial, Sans-serif">Created by Stanislav Levin from the Noun Project</text></svg>
