<svg xmlns="http://www.w3.org/2000/svg" xmlns:xlink="http://www.w3.org/1999/xlink" version="1.1" x="0px" y="0px" viewBox="0 0 96 112" style="enable-background:new 0 0 96 96;" xml:space="preserve"><path d="M45,96h3h3h3h4.5c0.828,0,1.5-0.672,1.5-1.5S59.328,93,58.5,93H54V48h27c0.826,0,1.537-0.295,2.121-0.879l9-9  c1.169-1.169,1.168-3.074,0-4.243l-9-9C82.537,24.295,81.826,24,81,24H54V9V4.5V3c0-1.657-1.343-3-3-3h-3c-1.657,0-3,1.343-3,3v1.5  V9v6H18c-0.826,0-1.537,0.295-2.121,0.879l-9,9c-1.169,1.169-1.168,3.074,0,4.243l9,9C16.462,38.705,17.174,39,18,39h27v54h-4.5  c-0.828,0-1.5,0.672-1.5,1.5s0.672,1.5,1.5,1.5H45L45,96z M51,4.5V9v18v18v48h-3V36V18V9V4.5V3h3V4.5z"/><text x="0" y="111" fill="gray" font-size="2px" font-weight="bold" font-family="'Helvetica Neue', Helvetica, Arial-Unicode, Arial, Sans-serif">Created by Stanislav Levin from the Noun Project</text></svg>
